<?xml version="1.0" encoding="utf-8"?>
<!-- Generator: Adobe Illustrator 25.0.1, SVG Export Plug-In . SVG Version: 6.00 Build 0)  -->
<svg version="1.1"
	 id="Layer_1" inkscape:version="0.48.4 r9939" sodipodi:docname="Noun_project_2633.svg" xmlns:cc="http://creativecommons.org/ns#" xmlns:dc="http://purl.org/dc/elements/1.1/" xmlns:inkscape="http://www.inkscape.org/namespaces/inkscape" xmlns:rdf="http://www.w3.org/1999/02/22-rdf-syntax-ns#" xmlns:sodipodi="http://sodipodi.sourceforge.net/DTD/sodipodi-0.dtd" xmlns:svg="http://www.w3.org/2000/svg"
	 xmlns="http://www.w3.org/2000/svg" xmlns:xlink="http://www.w3.org/1999/xlink" x="0px" y="0px" viewBox="0 0 50 39.3"
	 style="enable-background:new 0 0 50 39.3;" xml:space="preserve">
<style type="text/css">
	.st0{fill-rule:evenodd;clip-rule:evenodd;fill:#0099FF;}
</style>
<sodipodi:namedview  bordercolor="#666666" borderopacity="1" fit-margin-bottom="3" fit-margin-left="3" fit-margin-right="3" fit-margin-top="3" gridtolerance="10" guidetolerance="10" id="namedview5" inkscape:current-layer="Layer_1" inkscape:cx="25.054" inkscape:cy="19.984" inkscape:pageopacity="0" inkscape:pageshadow="2" inkscape:window-height="972" inkscape:window-maximized="1" inkscape:window-width="1280" inkscape:window-x="-8" inkscape:window-y="-8" inkscape:zoom="2.36" objecttolerance="10" pagecolor="#ffffff" showgrid="false">
	</sodipodi:namedview>
<path id="path3" inkscape:connector-curvature="0" class="st0" d="M35,35c-0.8,0-2.3,0-4.1,0c0-0.2,0.1-0.4,0.1-0.7V31
	c1.7,0,3.1,0,4,0c4.4,0,8-3.6,8-8c0-4.4-3.6-8-8-8c-1.2,0-2.4,0.3-3.4,0.8L30,14.2C28.1,10,23.9,7,19,7C12.4,7,7,12.4,7,19
	c0,6.6,5.4,12,12,12v3.3c0,0.2,0,0.4,0.1,0.7c0,0,0,0-0.1,0c-8.8,0-16-7.2-16-16c0-8.8,7.2-16,16-16c6,0,11.2,3.3,14,8.2
	c0.7-0.1,1.3-0.2,2-0.2c6.6,0,12,5.4,12,12C47,29.6,41.6,35,35,35z M17.9,24.8c-0.8-0.8-0.8-2,0-2.8l5.7-5.7c0.8-0.8,2-0.8,2.8,0
	l5.7,5.7c0.8,0.8,0.8,2,0,2.8c-0.8,0.8-2,0.8-2.8,0L27,22.5v11.8c0,1.1-0.9,2-2,2c-1.1,0-2-0.9-2-2V22.5l-2.2,2.2
	C20,25.5,18.7,25.5,17.9,24.8z"/>
</svg>
